<svg xmlns="http://www.w3.org/2000/svg" width="187.262" height="49.051" viewBox="0 0 187.262 49.051">
  <g id="Group_37840" data-name="Group 37840" transform="translate(-127 -349)">
    <path id="Path_51063" data-name="Path 51063" d="M184.2,371.409c3,3,12.678,12.7,12.678,12.679,3.18,3.179,3.08,9.6-.112,12.788l-8.758,8.763c-3.5,3.5-9.788,3.094-12.276.606l12.043-12.06a5.431,5.431,0,0,0,0-7.515l-12.109-12.112,3.149-3.149a3.817,3.817,0,0,1,5.382,0Z" transform="translate(-23.165 -10.137)" fill="#2d3e91" fill-rule="evenodd"/>
    <path id="Path_51064" data-name="Path 51064" d="M149.852,363.871c2.737-2.736,12.475-12.449,12.45-12.45,3.179-3.179,9.6-3.08,12.788.112l8.763,8.759c3.5,3.5,3.094,9.788.606,12.276l-12.3-12.283a4.964,4.964,0,0,0-6.893-.146l-10.223,10.221-2.271,2.271-2.92-2.919a4.142,4.142,0,0,1,0-5.84Z" transform="translate(-10.303 -0.041)" fill="#db1c20" fill-rule="evenodd"/>
    <path id="Path_51065" data-name="Path 51065" d="M141.981,385.551c-2.75-2.75-12.45-12.474-12.45-12.45-3.179-3.179-3.08-9.6.112-12.788l8.758-8.763c3.5-3.5,9.788-3.094,12.276-.606L138.458,363.18c-1.91,1.91-1.632,5.536.172,7.34l12.11,12.112-2.92,2.92a4.141,4.141,0,0,1-5.84,0Z" transform="translate(-0.094)" fill="#2d3e91" fill-rule="evenodd"/>
    <path id="Path_51066" data-name="Path 51066" d="M163.551,406.211c-2.75,2.75-12.474,12.45-12.45,12.45-3.179,3.179-9.6,3.08-12.788-.112l-8.763-8.758c-3.5-3.5-3.094-9.788-.607-12.276l12.236,12.218a5.263,5.263,0,0,0,7.34-.172l12.112-12.109,2.92,2.92a4.141,4.141,0,0,1,0,5.84Z" transform="translate(0 -23.06)" fill="#2d3e91" fill-rule="evenodd"/>
    <path id="Path_51067" data-name="Path 51067" d="M325.762,360.134v5.307h4.332a2.654,2.654,0,1,0,0-5.307Zm14.751,5.244c.084,3.026,1.827,5.234,5.049,5.234s4.975-2.23,5.027-5.255c.051-3.005-1.782-5.44-4.959-5.5-3.217,0-5.2,2.394-5.117,5.52ZM325.762,368.5v4.832h-3.314V360.128a3.078,3.078,0,0,1,3.3-3.015h4.345a5.7,5.7,0,1,1,0,11.392Zm19.869-11.684a8.031,8.031,0,0,1,8.221,8.5c-.052,4.885-3.271,8.356-8.29,8.356-5,0-8.313-3.372-8.313-8.335a8.169,8.169,0,0,1,8.381-8.516Zm-32.963,3.309h-5.036a2.66,2.66,0,0,1,2.817-3.017h10.569v3.017h-5.036v13.207h-3.314V360.13Zm-9.624,2.627-7.022,10.58h-3.851l.007-16.224h3.314V368.94l6.82-10.267c.754-1.143,1.92-1.561,4.047-1.561v16.223h-3.314v-10.58Zm-17.564-2.623h-7.471v13.2H274.7v-13.2c0-1.914,1.093-3.019,3.2-3.019h10.867v16.223H285.48v-13.2ZM366.6,366.7h-7.533v6.633h-3.3V360.112c0-1.885,1.171-3,3.3-3v6.568H366.6v-6.568h3.3v16.22h-3.3V366.7Zm-99.146.6-2.539-6.261-2.577,6.261Zm-16.825-2.326,6.294,7.34,6.3-15.171c2.419,0,3.646.385,4.824,3.014l5.372,13.177h-3.477l-1.239-3.01-7.616,0-1.245,3.015h-4.235c-1.993,0-2.464-.515-3.005-1.088l-4.912-5.712H247.2v6.8h-3.3v-16.22h3.3v6.578h.6l5.215-6.578h4.216l-6.6,7.859Z" transform="translate(-55.635 -3.722)" fill="#2d3e91" fill-rule="evenodd"/>
    <path id="Path_51068" data-name="Path 51068" d="M247.325,416.928h3.936c3.6,0,3.621-4.382,0-4.382h-3.936v4.382Zm0-10.191v3.02h3.936c8.038,0,8.011,10.161,0,10.18l-7.237,0v-13.2c0-1.668.761-3.017,3.273-3.017h9.157v3.017Zm38.234,6.57h-7.533v6.632h-3.3v-13.22c0-1.885,1.171-3,3.3-3v6.568h7.533v-6.567h3.3v16.22h-3.3v-6.633Zm-17.516.6-2.539-6.261-2.577,6.261Zm1.248,3.025-7.616,0-1.245,3.016h-3.344l6.724-16.193c2.419,0,3.646.385,4.824,3.014l5.373,13.177H270.53l-1.239-3.009Zm29.816-5.353,7.17,8.362h-2.193c-1.993,0-2.464-.515-3-1.088l-4.913-5.712h-.492v6.8h-3.3V403.721h3.3V410.3h.6l5.215-6.578h4.216l-6.6,7.86Z" transform="translate(-55.696 -26.043)" fill="#2d3e91" fill-rule="evenodd"/>
  </g>
</svg>
